<svg width="92" height="13" viewBox="0 0 92 13" fill="none" xmlns="http://www.w3.org/2000/svg">
    <g clip-path="url(#clip0_6413_6280)">
        <path d="M7.34771 12.2876V4.91992H0L1.45117 7.8486H4.40862V10.7957L7.34771 12.2876Z"
            fill="white" />
        <path d="M4.44525 3.44342L2.93896 0.5H11.7562V9.34122L8.81467 7.83397V3.44342H4.44525Z"
            fill="white" />
        <path
            d="M23.6725 8.18766C23.6725 8.06868 23.655 7.96194 23.62 7.86744C23.585 7.76944 23.5202 7.67844 23.4256 7.59446C23.331 7.51046 23.1944 7.42646 23.0158 7.34246C22.8407 7.25496 22.6095 7.16396 22.3223 7.06949C21.9861 6.95749 21.6621 6.83149 21.3504 6.69149C21.0387 6.54801 20.7602 6.38176 20.5151 6.19276C20.2699 6.00029 20.0755 5.77629 19.9319 5.52081C19.7883 5.26181 19.7165 4.96084 19.7165 4.61786C19.7165 4.28886 19.7901 3.99314 19.9372 3.73064C20.0843 3.46466 20.2892 3.23891 20.5519 3.05344C20.818 2.86444 21.1298 2.72094 21.487 2.62295C21.8442 2.52145 22.2348 2.4707 22.6586 2.4707C23.219 2.4707 23.7128 2.5687 24.1401 2.76469C24.5709 2.95718 24.9071 3.23191 25.1489 3.58891C25.394 3.94239 25.5166 4.36061 25.5166 4.84359H23.683C23.683 4.65109 23.6428 4.48136 23.5622 4.33436C23.4851 4.18736 23.3678 4.07189 23.2102 3.98789C23.0526 3.90389 22.8547 3.86189 22.6165 3.86189C22.3854 3.86189 22.191 3.89689 22.0334 3.96689C21.8758 4.03689 21.7567 4.13136 21.6761 4.25036C21.5956 4.36586 21.5553 4.49361 21.5553 4.63359C21.5553 4.74909 21.5868 4.85409 21.6499 4.94859C21.7164 5.03959 21.8092 5.12534 21.9283 5.20581C22.0509 5.28631 22.198 5.36331 22.3696 5.43681C22.5447 5.51031 22.7409 5.58206 22.958 5.65204C23.3643 5.78154 23.7251 5.92679 24.0403 6.08779C24.359 6.24526 24.6269 6.42551 24.8441 6.62851C25.0646 6.82799 25.2312 7.05549 25.3431 7.31096C25.4588 7.56646 25.5166 7.85518 25.5166 8.17716C25.5166 8.52016 25.4501 8.82463 25.3169 9.09063C25.1838 9.35661 24.9928 9.58236 24.7443 9.76784C24.4956 9.94984 24.1979 10.0881 23.8511 10.1826C23.5044 10.2771 23.1174 10.3243 22.6901 10.3243C22.2978 10.3243 21.9108 10.2753 21.529 10.1773C21.1508 10.0758 20.8075 9.92183 20.4993 9.71533C20.1911 9.50536 19.9442 9.23761 19.7585 8.91213C19.5764 8.58316 19.4854 8.19291 19.4854 7.74144H21.3347C21.3347 7.96544 21.3644 8.15444 21.424 8.30841C21.4835 8.46241 21.5711 8.58666 21.6866 8.68116C21.8022 8.77213 21.9441 8.83863 22.1122 8.88063C22.2803 8.91913 22.4729 8.93838 22.6901 8.93838C22.9248 8.93838 23.1139 8.90514 23.2575 8.83864C23.4011 8.76864 23.5062 8.67766 23.5727 8.56566C23.6392 8.45016 23.6725 8.32416 23.6725 8.18766Z"
            fill="white" />
        <path
            d="M31.6712 2.57422V10.2178H29.8273V2.57422H31.6712ZM33.9725 2.57422V3.99691H27.5786V2.57422H33.9725Z"
            fill="white" />
        <path
            d="M39.2372 4.18063L37.3722 10.2178H35.3916L38.2022 2.57422H39.4578L39.2372 4.18063ZM40.7817 10.2178L38.9115 4.18063L38.6697 2.57422H39.9412L42.7676 10.2178H40.7817ZM40.7082 7.36723V8.78991H36.7838V7.36723H40.7082Z"
            fill="white" />
        <path
            d="M48.7465 7.6306H50.5853C50.5608 8.16257 50.4172 8.63155 50.1547 9.03753C49.8919 9.4435 49.5276 9.76023 49.0619 9.98773C48.5994 10.2117 48.0531 10.3237 47.4226 10.3237C46.9112 10.3237 46.4542 10.2379 46.0516 10.0665C45.6522 9.89497 45.3123 9.64825 45.0323 9.32625C44.7556 9.00427 44.5437 8.61405 44.3966 8.15557C44.253 7.69707 44.1812 7.18085 44.1812 6.6069V6.19215C44.1812 5.6182 44.2564 5.10197 44.407 4.64347C44.5611 4.1815 44.7783 3.78952 45.0585 3.46755C45.3423 3.14205 45.6818 2.89357 46.0778 2.72208C46.4734 2.55059 46.913 2.46484 47.3964 2.46484C48.0619 2.46484 48.6241 2.58384 49.0828 2.82182C49.5416 3.05982 49.8971 3.38705 50.1492 3.80352C50.4015 4.2165 50.5503 4.68722 50.596 5.2157H48.757C48.75 4.92872 48.7011 4.68897 48.6099 4.4965C48.5189 4.3005 48.3753 4.1535 48.1793 4.05552C47.9831 3.95752 47.722 3.90852 47.3964 3.90852C47.1688 3.90852 46.9708 3.95052 46.8028 4.03452C46.6345 4.1185 46.4946 4.2515 46.3824 4.4335C46.2702 4.6155 46.1862 4.85172 46.1304 5.1422C46.0778 5.4292 46.0516 5.77567 46.0516 6.18165V6.6069C46.0516 7.01287 46.076 7.35935 46.1251 7.64635C46.174 7.93332 46.2528 8.16782 46.3615 8.3498C46.4699 8.5318 46.6101 8.66655 46.7816 8.75403C46.9569 8.83803 47.1705 8.88002 47.4226 8.88002C47.7028 8.88002 47.9392 8.83627 48.1319 8.74877C48.3246 8.6578 48.4735 8.5213 48.5785 8.3393C48.6834 8.15382 48.7395 7.91757 48.7465 7.6306Z"
            fill="white" />
        <path
            d="M54.5999 2.57422V10.2178H52.7559V2.57422H54.5999ZM59.1652 2.57422L56.2022 6.44853L54.4685 8.34368L54.1324 6.65326L55.2409 4.97336L56.8904 2.57422H59.1652ZM56.9851 10.2178L55.0097 6.77401L56.4438 5.71881L59.1652 10.2178H56.9851Z"
            fill="white" />
        <path
            d="M65.0585 2.57422H66.9025V7.56673C66.9025 8.16171 66.7781 8.66568 66.5295 9.07866C66.2807 9.48813 65.9324 9.79786 65.4838 10.0079C65.0356 10.2178 64.5085 10.3228 63.9026 10.3228C63.3038 10.3228 62.7767 10.2178 62.3212 10.0079C61.8694 9.79786 61.5156 9.48813 61.2601 9.07866C61.0077 8.66568 60.8818 8.16171 60.8818 7.56673V2.57422H62.7311V7.56673C62.7311 7.88171 62.7767 8.13896 62.8677 8.33843C62.9587 8.53443 63.0918 8.67791 63.2669 8.76891C63.4421 8.85991 63.6541 8.90541 63.9026 8.90541C64.1547 8.90541 64.3666 8.85991 64.5384 8.76891C64.7099 8.67791 64.8396 8.53443 64.9271 8.33843C65.0146 8.13896 65.0585 7.88171 65.0585 7.56673V2.57422Z"
            fill="white" />
        <path
            d="M74.9007 8.80041V10.2178H71.034V8.80041H74.9007ZM71.6907 2.57422V10.2178H69.8467V2.57422H71.6907Z"
            fill="white" />
        <path
            d="M80.6195 4.18063L78.7545 10.2178H76.7739L79.5845 2.57422H80.8401L80.6195 4.18063ZM82.164 10.2178L80.2939 4.18063L80.0523 2.57422H81.3236L84.1501 10.2178H82.164ZM82.0905 7.36723V8.78991H78.1661V7.36723H82.0905Z"
            fill="white" />
        <path
            d="M85.8203 2.57422H88.8306C89.419 2.57422 89.9304 2.66172 90.3647 2.83671C90.799 3.01171 91.1336 3.27068 91.3682 3.61366C91.6063 3.95666 91.7255 4.38013 91.7255 4.88411C91.7255 5.32158 91.6572 5.68731 91.5206 5.98131C91.3839 6.27528 91.193 6.51853 90.9479 6.71101C90.7063 6.90001 90.4243 7.05576 90.1022 7.17823L89.4978 7.51948H86.9709L86.9605 6.09681H88.8306C89.0652 6.09681 89.2597 6.05481 89.4138 5.97081C89.5679 5.88681 89.6836 5.76781 89.7606 5.61383C89.8411 5.45633 89.8815 5.26908 89.8815 5.05211C89.8815 4.83161 89.8411 4.64261 89.7606 4.48513C89.6801 4.32763 89.5609 4.20688 89.4033 4.12288C89.2492 4.03891 89.0583 3.99691 88.8306 3.99691H87.6643V10.2178H85.8203V2.57422ZM90.0074 10.2178L88.3158 6.83701L90.2702 6.82651L91.9828 10.1391V10.2178H90.0074Z"
            fill="white" />
    </g>
    <defs>
        <clipPath id="clip0_6413_6280">
            <rect width="92" height="12" fill="white" transform="translate(0 0.5)" />
        </clipPath>
    </defs>
</svg>